<svg xmlns="http://www.w3.org/2000/svg" width="49.791" height="61.435" viewBox="0 0 49.791 61.435">
  <g id="apple-logo" transform="translate(-3.381)">
    <path id="Path_1" data-name="Path 1" d="M53.172,45.121c-.165.467-.325.968-.51,1.46A37.855,37.855,0,0,1,46.01,57.742a14.407,14.407,0,0,1-1.827,1.8,7.212,7.212,0,0,1-4.491,1.812,9,9,0,0,1-3.721-.678c-.864-.353-1.715-.747-2.592-1.066a11.593,11.593,0,0,0-8.473.208c-1.009.4-2,.84-3.033,1.186a7.248,7.248,0,0,1-3.687.324,7.173,7.173,0,0,1-2.952-1.376,16.647,16.647,0,0,1-2.907-2.876A39.28,39.28,0,0,1,4.113,40.014a31.015,31.015,0,0,1-.682-8.287A19.634,19.634,0,0,1,6.2,22.309a14.942,14.942,0,0,1,9.588-6.959,12.2,12.2,0,0,1,7.341.572q1.888.723,3.785,1.433a4.759,4.759,0,0,0,3.489-.009q1.935-.739,3.876-1.464a15.56,15.56,0,0,1,4.086-.992,15.349,15.349,0,0,1,6.165.773,13.506,13.506,0,0,1,6.887,5.073c.046.067.1.141.133.195-4.395,3.064-6.9,7.11-6.534,12.59S48.333,42.714,53.172,45.121ZM28.521,14.212a9.381,9.381,0,0,0,3.744-.692,13.633,13.633,0,0,0,8.25-12.394C40.508.77,40.484.413,40.469,0c-.563.084-1.076.124-1.569.248a13.71,13.71,0,0,0-9.094,6.821,11.754,11.754,0,0,0-1.639,6.814C28.18,14.143,28.275,14.209,28.521,14.212Z" fill="#202020"/>
  </g>
</svg>
