<svg id="Layer_1" data-name="Layer 1" xmlns="http://www.w3.org/2000/svg" viewBox="0 0 27.1 32.5"><defs><style>.cls-1{fill:#202020;}</style></defs><title>shopping-bag</title><path class="cls-1" d="M27,30.8,25.1,9.3a1.5,1.5,0,0,0-1.5-1.4H20V6.5a6.5,6.5,0,1,0-12.9,0V7.9H3.5A1.5,1.5,0,0,0,2,9.3L0,30.9A1.5,1.5,0,0,0,.4,32a1.2,1.2,0,0,0,1,.5H25.5A1.6,1.6,0,0,0,27.1,31C27.1,30.9,27.1,30.8,27,30.8ZM8.6,14a1.5,1.5,0,0,0,1.5-1.4V10.9H17v1.7a1.2,1.2,0,0,0,.4,1,1.2,1.2,0,0,0,1.1.4A1.5,1.5,0,0,0,20,12.6V10.9h2.2l1.7,18.6H3.2L4.8,10.9H7.1v1.7A1.4,1.4,0,0,0,8.6,14Zm1.5-6.1V6.4A3.5,3.5,0,0,1,17,6.3V7.9Z"/></svg>