<svg xmlns="http://www.w3.org/2000/svg" width="29.29" height="23.798" viewBox="0 0 29.29 23.798">
  <path id="twitter" d="M26.28,8.185a11.986,11.986,0,0,0,3.01-3.117h0a12.54,12.54,0,0,1-3.46.948A5.973,5.973,0,0,0,28.472,2.7,12.014,12.014,0,0,1,24.664,4.15,6,6,0,0,0,14.277,8.256a6.183,6.183,0,0,0,.139,1.369A17,17,0,0,1,2.039,3.343a6,6,0,0,0,1.845,8.025,5.935,5.935,0,0,1-2.713-.74V10.7a6.033,6.033,0,0,0,4.811,5.9,5.971,5.971,0,0,1-1.574.2,5.3,5.3,0,0,1-1.136-.1,6.064,6.064,0,0,0,5.61,4.184,12.07,12.07,0,0,1-7.446,2.56A11.357,11.357,0,0,1,0,23.353a16.91,16.91,0,0,0,9.212,2.695A16.974,16.974,0,0,0,26.28,8.185Z" transform="translate(0 -2.25)" fill="#202020"/>
</svg>
